<?xml version="1.0" standalone="no"?>
<!DOCTYPE svg PUBLIC "-//W3C//DTD SVG 20010904//EN"
 "http://www.w3.org/TR/2001/REC-SVG-20010904/DTD/svg10.dtd">
<svg version="1.0" xmlns="http://www.w3.org/2000/svg"
 width="640.000000pt" height="640.000000pt" viewBox="0 0 640.000000 640.000000"
 preserveAspectRatio="xMidYMid meet">
<metadata>
Created by potrace 1.11, written by Peter Selinger 2001-2013
</metadata>
<g transform="translate(0.000000,640.000000) scale(0.100000,-0.100000)"
fill="#000000" stroke="none">
<path d="M2970 5705 c-145 -23 -290 -55 -385 -86 -90 -28 -230 -91 -283 -127
-15 -10 -63 -42 -107 -72 -110 -73 -212 -148 -260 -190 -132 -115 -277 -281
-358 -408 -128 -198 -256 -534 -257 -670 0 -28 -14 -51 -78 -124 -46 -54 -95
-100 -122 -114 -25 -14 -34 -21 -20 -18 119 34 95 -49 -36 -122 -35 -19 -73
-49 -84 -64 -28 -39 -81 -170 -74 -181 3 -5 42 26 87 69 167 161 205 194 224
190 26 -5 28 -49 3 -78 -12 -14 -47 -54 -78 -89 -52 -58 -105 -139 -153 -233
-10 -20 -28 -81 -38 -135 -11 -54 -22 -107 -25 -118 -4 -11 -1 -9 6 5 27 52
27 52 71 16 111 -90 261 -161 404 -192 l82 -17 6 -51 c4 -28 12 -59 17 -69 5
-10 15 -37 22 -61 l13 -42 -31 -1 c-17 0 -83 -3 -146 -7 -63 -3 -193 -8 -288
-11 -96 -2 -179 -8 -185 -14 -7 -5 -23 -11 -36 -13 -36 -5 -59 -45 -68 -118
-10 -75 -5 -163 8 -154 5 3 4 -7 -1 -21 -12 -32 -12 -38 -1 -31 11 7 21 -17
21 -50 0 -16 8 -28 25 -36 14 -6 25 -20 25 -30 0 -11 4 -17 9 -13 6 3 14 -2
19 -12 23 -40 82 -47 392 -49 227 -1 310 2 358 13 56 13 132 11 132 -3 0 -15
62 -298 75 -344 9 -30 21 -74 27 -97 5 -24 12 -43 15 -43 2 0 2 75 -2 168 -4
92 -5 165 -2 162 3 -3 23 -39 45 -80 85 -159 97 -180 106 -180 4 0 5 10 2 23
-12 39 -37 290 -34 337 2 25 8 45 13 45 6 0 15 3 20 6 19 12 44 -7 162 -121
65 -63 148 -135 185 -160 72 -48 74 -54 69 -150 -2 -23 -52 -197 -71 -247 -11
-27 -8 -29 57 -38 29 -4 57 -13 63 -20 8 -10 18 -11 36 -4 47 17 119 11 150
-13 15 -13 24 -17 20 -10 -7 12 -17 71 -42 263 -11 78 8 113 90 168 39 27 78
57 86 66 8 10 27 26 42 35 l27 16 -47 13 c-154 42 -371 133 -465 195 -131 87
-332 314 -402 455 l-27 54 -5 332 -6 333 33 58 c113 199 170 303 227 414 89
170 111 201 153 215 27 9 35 17 36 37 1 37 11 47 44 45 21 -1 30 -7 30 -20 0
-14 -4 -16 -19 -7 -13 7 -22 7 -26 0 -3 -5 -1 -10 5 -10 6 0 8 -4 5 -10 -4 -7
3 -7 20 0 53 20 65 14 65 -34 0 -43 -2 -45 -37 -57 -49 -15 -130 -56 -138 -68
-3 -6 23 3 57 19 35 16 75 32 89 35 26 6 26 6 32 -71 4 -42 7 -123 7 -180 l0
-103 -57 -16 c-108 -30 -122 -36 -182 -75 -197 -127 -293 -333 -235 -503 20
-60 48 -86 32 -30 -11 42 -4 155 14 216 25 82 157 196 298 256 98 42 239 38
348 -9 23 -11 42 -15 42 -10 0 5 -36 39 -80 76 -44 37 -80 71 -80 75 0 4 -9
11 -20 14 -11 3 -20 11 -20 16 0 23 194 499 207 508 5 3 19 30 32 59 14 29 27
48 31 42 3 -5 13 -1 23 10 27 32 64 26 82 -12 l15 -33 -3 32 c-2 18 0 30 5 27
4 -3 8 -57 8 -120 0 -115 5 -135 38 -141 6 -2 14 7 16 20 10 55 27 127 45 192
l18 70 49 7 c27 3 90 7 141 7 l91 1 21 -34 c12 -19 19 -42 15 -52 -4 -14 -3
-16 4 -5 8 11 13 8 23 -13 8 -14 41 -79 74 -143 38 -77 61 -111 63 -99 3 15 6
16 13 5 8 -12 11 -12 19 1 8 13 10 12 10 -2 0 -10 5 -18 10 -18 8 0 17 251 11
310 -2 13 0 13 8 1 8 -12 12 -12 27 3 13 14 28 17 63 13 74 -8 86 -13 84 -33
-1 -11 0 -13 3 -6 11 23 24 12 19 -15 -3 -16 -2 -22 1 -15 8 17 24 15 24 -4 0
-8 5 -12 10 -9 6 3 10 1 10 -4 0 -6 12 -21 26 -34 24 -21 114 -155 114 -171 0
-4 -10 -5 -22 -1 -22 5 -22 5 -4 -7 49 -33 78 -70 122 -153 73 -141 115 -214
125 -221 7 -4 7 54 3 160 -4 91 -4 166 -1 166 10 0 47 -61 146 -241 68 -122
92 -175 100 -222 14 -78 30 -418 33 -685 2 -189 0 -203 -18 -217 -10 -8 -22
-15 -25 -15 -3 0 -33 -35 -66 -78 -128 -165 -252 -266 -439 -360 -75 -37 -229
-99 -304 -121 -79 -24 -94 -29 -78 -30 9 -1 61 -30 114 -66 54 -36 103 -65
110 -65 7 0 22 -21 35 -46 21 -45 21 -50 10 -173 -6 -69 -11 -131 -11 -138 0
-6 32 -22 70 -34 39 -12 70 -25 70 -30 0 -4 12 -1 27 6 20 10 44 13 82 8 50
-6 54 -5 47 13 -4 10 -21 70 -37 133 -16 62 -35 123 -41 134 -11 20 -5 128 10
166 9 26 300 329 323 336 9 3 29 18 44 33 24 24 28 25 36 9 6 -9 16 -17 23
-17 8 0 17 -7 20 -16 16 -41 -4 -368 -23 -387 -14 -14 -14 -27 -1 -27 19 0 95
148 131 255 l37 110 7 -56 c4 -31 5 -102 3 -158 -4 -143 4 -136 46 34 8 33 20
93 26 134 8 46 19 80 31 92 10 10 19 26 19 34 0 8 6 15 14 15 8 0 13 8 11 18
-1 9 0 13 2 7 11 -28 60 -50 113 -51 35 0 66 -8 83 -19 17 -11 35 -15 50 -10
49 15 98 22 102 14 9 -14 69 -7 89 10 15 13 46 16 173 18 148 2 155 3 175 25
11 13 24 22 28 21 8 -2 40 57 40 74 0 6 9 18 20 28 14 13 18 25 13 48 -4 21
-3 28 5 23 15 -9 9 153 -7 182 -6 11 -8 21 -6 24 9 9 -30 36 -75 53 -72 27
-148 32 -432 29 -147 -2 -270 1 -273 5 -2 5 14 41 36 80 31 53 48 73 68 77 95
20 285 92 397 150 95 49 153 91 222 161 43 43 62 53 62 31 0 -6 3 -9 6 -5 3 3
-5 41 -19 84 -26 77 -77 312 -77 350 0 44 -151 149 -238 165 -73 14 -130 53
-119 83 6 15 15 17 69 11 49 -6 169 -38 233 -63 7 -2 15 2 18 10 7 18 -71 69
-141 92 -75 25 -109 43 -147 80 -45 42 -45 72 0 67 17 -2 34 -8 40 -13 5 -5
18 -9 29 -9 15 0 11 5 -17 20 -20 11 -41 20 -47 20 -6 0 -37 17 -69 37 -56 35
-62 42 -89 113 -152 385 -329 697 -527 926 -86 100 -156 156 -266 214 -275
143 -529 230 -829 281 -160 27 -464 34 -590 14z m1654 -515 c79 -86 189 -234
241 -325 15 -27 38 -62 51 -78 25 -30 151 -280 184 -367 12 -30 31 -77 42
-105 32 -82 33 -84 9 -78 -12 3 -21 10 -21 16 0 6 -3 7 -6 4 -7 -7 -63 29 -76
48 -5 6 -8 6 -8 0 -1 -12 -29 59 -37 92 -3 12 -11 28 -19 34 -8 6 -14 18 -14
25 0 8 -16 49 -36 91 -20 43 -37 83 -38 88 -1 6 -11 27 -23 47 -11 19 -24 46
-28 59 -4 12 -23 52 -41 88 -19 36 -34 71 -34 78 0 7 -9 17 -21 23 -11 7 -18
18 -15 25 3 8 0 20 -7 27 -7 7 -21 33 -32 58 -11 25 -27 52 -35 60 -9 8 -28
34 -41 57 -14 23 -46 65 -72 93 -26 28 -47 53 -47 56 0 11 49 -35 124 -116z
m-2162 -1062 c-7 -7 -12 -8 -12 -2 0 14 12 26 19 19 2 -3 -1 -11 -7 -17z m68
-15 c0 -3 -7 -11 -15 -19 -13 -14 -15 -13 -15 4 0 10 7 19 15 19 8 0 15 -2 15
-4z m-128 -31 c-7 -2 -10 -7 -7 -12 2 -4 -5 -16 -17 -26 -11 -11 -19 -14 -17
-9 19 43 34 63 42 58 8 -5 7 -8 -1 -11z m3198 -197 c22 -13 23 -14 5 -14 -11
0 -29 6 -39 14 -26 20 0 20 34 0z m-621 -655 c41 -44 53 -100 49 -226 -3 -96
-7 -116 -32 -166 -27 -54 -75 -113 -124 -153 l-22 -18 6 209 c4 115 10 212 14
217 3 4 30 10 59 14 28 3 54 10 57 14 10 16 -44 59 -74 59 -34 0 -47 21 -32
50 21 39 61 39 99 0z m-3324 -129 c0 -57 -2 -65 -20 -66 -37 -3 -66 -17 -62
-28 2 -7 12 -11 21 -11 9 1 16 -6 17 -15 0 -10 2 -11 6 -3 7 17 23 15 23 -3 0
-8 7 -15 15 -15 8 0 17 -10 19 -22 13 -62 25 -140 31 -203 3 -38 9 -87 12
-109 l6 -38 -30 16 c-45 23 -109 100 -146 175 -60 123 -45 305 31 369 16 13
37 21 52 20 24 -3 25 -6 25 -67z m5 -108 c0 -10 -4 -14 -8 -8 -4 6 -11 13 -16
18 -5 4 -2 7 7 7 10 0 17 -8 17 -17z m369 -445 l23 -38 -30 0 c-32 0 -42 17
-42 75 0 25 2 27 13 15 8 -8 24 -32 36 -52z"/>
<path d="M5060 4320 c0 -5 5 -10 11 -10 5 0 7 5 4 10 -3 6 -8 10 -11 10 -2 0
-4 -4 -4 -10z"/>
<path d="M1025 3870 c-8 -13 15 -13 35 0 12 8 11 10 -7 10 -12 0 -25 -4 -28
-10z"/>
<path d="M5652 3854 c9 -9 21 -15 27 -13 6 2 -2 10 -17 17 -25 11 -25 11 -10
-4z"/>
<path d="M3895 3649 c-16 -4 -26 -7 -20 -8 5 0 -4 -11 -19 -23 -16 -13 -47
-38 -70 -57 l-41 -34 55 9 c30 5 109 9 175 9 116 0 122 -1 183 -33 84 -44 189
-149 225 -226 40 -85 60 -179 54 -256 -5 -55 -4 -60 5 -30 5 19 8 91 6 160 -3
123 -4 126 -43 199 -44 84 -144 191 -217 234 -75 44 -223 72 -293 56z"/>
<path d="M3895 3500 c-89 -48 -141 -127 -152 -230 -7 -72 11 -169 41 -213 18
-26 27 -31 66 -31 l45 -1 -2 -43 c-2 -42 -1 -44 43 -63 63 -26 166 -26 219 1
54 27 134 105 151 146 19 45 18 145 -3 217 -13 48 -28 73 -75 122 -68 74 -123
101 -223 110 -60 5 -75 3 -110 -15z m173 -523 c21 -17 13 -27 -20 -27 -48 0
-78 10 -78 26 0 16 77 17 98 1z"/>
<path d="M2520 3453 c-84 -13 -172 -77 -215 -154 -27 -49 -30 -63 -30 -144 0
-81 3 -95 29 -140 16 -27 31 -52 32 -54 2 -2 15 1 28 8 33 18 68 10 83 -19 10
-20 9 -27 -2 -41 -18 -18 -12 -26 34 -45 74 -31 212 -5 281 52 16 14 42 51 57
82 24 49 28 69 28 142 0 175 -63 267 -210 306 -50 14 -68 15 -115 7z m170
-524 c0 -16 -69 -40 -106 -37 -51 4 -42 22 15 28 27 3 53 9 57 13 11 11 34 8
34 -4z"/>
<path d="M5815 2609 c-28 -160 -45 -353 -31 -338 3 2 7 31 10 64 3 33 12 114
20 180 8 66 13 121 11 123 -2 2 -6 -11 -10 -29z"/>
<path d="M5769 2592 c5 -34 6 -35 9 -8 2 16 0 32 -5 37 -5 5 -7 -7 -4 -29z"/>
<path d="M741 2604 c0 -11 3 -14 6 -6 3 7 2 16 -1 19 -3 4 -6 -2 -5 -13z"/>
<path d="M70 2520 c0 -36 3 -40 25 -40 31 0 65 -32 65 -62 0 -20 1 -20 18 -5
10 10 22 14 25 11 4 -4 10 2 13 12 4 10 13 26 21 36 13 14 11 19 -8 37 -13 12
-26 21 -31 21 -4 0 -8 7 -8 15 0 12 -13 15 -60 15 l-60 0 0 -40z"/>
<path d="M747 2508 c2 -29 7 -64 10 -78 4 -14 5 -29 4 -33 -1 -5 3 -6 8 -3 5
4 12 0 14 -6 3 -7 3 5 0 27 -4 22 -10 42 -15 43 -4 2 -8 20 -8 40 0 21 -4 43
-9 50 -5 8 -7 -8 -4 -40z"/>
<path d="M5771 2494 c0 -11 3 -14 6 -6 3 7 2 16 -1 19 -3 4 -6 -2 -5 -13z"/>
<path d="M373 2440 c0 -25 2 -35 4 -22 2 12 2 32 0 45 -2 12 -4 2 -4 -23z"/>
<path d="M777 2314 c3 -27 10 -56 15 -64 5 -9 6 4 2 35 -9 67 -23 93 -17 29z"/>
<path d="M5771 2224 c0 -11 3 -14 6 -6 3 7 2 16 -1 19 -3 4 -6 -2 -5 -13z"/>
<path d="M4253 1365 c0 -8 4 -12 9 -9 4 3 8 9 8 15 0 5 -4 9 -8 9 -5 0 -9 -7
-9 -15z"/>
<path d="M940 1262 c0 -5 7 -9 15 -9 8 0 12 4 9 9 -3 4 -9 8 -15 8 -5 0 -9 -4
-9 -8z"/>
<path d="M1000 1225 c13 -14 26 -25 28 -25 3 0 -5 11 -18 25 -13 14 -26 25
-28 25 -3 0 5 -11 18 -25z"/>
<path d="M440 714 c0 -8 -7 -22 -15 -30 -8 -9 -15 -11 -15 -6 0 5 -19 5 -47 0
-27 -4 -65 -11 -85 -14 -21 -4 -38 -11 -38 -15 0 -5 -6 -9 -14 -9 -43 0 -58
-95 -31 -206 15 -65 17 -162 3 -170 -5 -3 -6 -14 -3 -25 5 -15 1 -19 -14 -19
-24 0 -30 -37 -10 -57 9 -9 5 -14 -17 -19 -16 -3 -38 -12 -49 -18 -11 -7 -39
-18 -63 -24 -41 -13 -42 -14 -42 -58 l0 -44 460 0 460 1 -14 22 c-8 12 -29 76
-46 142 -17 66 -38 139 -46 163 -8 23 -14 45 -14 47 0 2 26 5 58 7 51 3 45 4
-58 17 -203 24 -261 49 -287 123 -7 18 -23 72 -38 121 -25 84 -35 104 -35 71z
m243 -587 c3 -7 -5 -20 -16 -27 -80 -52 -123 -63 -134 -34 -9 23 29 56 74 64
58 12 70 11 76 -3z"/>
<path d="M5992 550 c0 -14 2 -19 5 -12 2 6 2 18 0 25 -3 6 -5 1 -5 -13z"/>
<path d="M5982 275 l1 -120 7 105 c3 58 3 112 -1 120 -5 8 -8 -39 -7 -105z"/>
<path d="M1018 373 c7 -3 16 -2 19 1 4 3 -2 6 -13 5 -11 0 -14 -3 -6 -6z"/>
<path d="M5983 50 c0 -30 2 -43 4 -28 2 16 2 40 0 55 -2 16 -4 3 -4 -27z"/>
<path d="M1051 14 c0 -11 3 -14 6 -6 3 7 2 16 -1 19 -3 4 -6 -2 -5 -13z"/>
</g>
</svg>
