<?xml version="1.0" standalone="no"?>
<!DOCTYPE svg PUBLIC "-//W3C//DTD SVG 20010904//EN"
 "http://www.w3.org/TR/2001/REC-SVG-20010904/DTD/svg10.dtd">
<svg version="1.0" xmlns="http://www.w3.org/2000/svg"
 width="640.000000pt" height="640.000000pt" viewBox="0 0 640.000000 640.000000"
 preserveAspectRatio="xMidYMid meet">
<metadata>
Created by potrace 1.11, written by Peter Selinger 2001-2013
</metadata>
<g transform="translate(0.000000,640.000000) scale(0.100000,-0.100000)"
fill="#000000" stroke="none">
<path d="M0 5717 c0 -526 3 -686 12 -695 10 -10 10 -17 0 -32 -9 -15 -12 -135
-12 -487 0 -447 1 -467 18 -445 l17 22 19 -34 c10 -20 15 -40 11 -48 -5 -7 -5
-10 -1 -6 9 7 76 -50 76 -64 0 -4 -7 -8 -16 -8 -25 0 -13 -44 14 -48 12 -2 22
-10 22 -18 0 -8 4 -14 9 -14 5 0 8 8 7 17 -2 28 44 30 51 4 5 -19 7 -19 17 -6
18 24 70 30 87 9 11 -13 11 -18 2 -21 -7 -3 -13 -8 -13 -13 0 -19 51 17 56 40
10 46 17 57 21 38 5 -22 31 -24 39 -3 4 8 12 15 19 15 8 0 16 8 18 18 4 16 5
16 6 0 1 -25 8 -23 38 12 13 17 29 30 34 30 5 0 9 -13 9 -30 0 -16 5 -30 10
-30 13 0 13 167 1 174 -5 4 -11 3 -14 -1 -2 -5 -2 -2 0 5 1 8 3 20 3 28 0 8 6
14 13 14 8 0 19 22 27 50 8 28 19 50 27 50 7 0 13 8 13 18 0 14 2 15 10 2 6
-9 5 -17 -3 -22 -9 -5 -9 -10 1 -20 23 -23 44 18 40 77 -3 28 -1 64 3 80 5 25
7 21 8 -22 0 -29 6 -53 11 -53 10 0 16 135 11 233 -2 26 2 54 9 62 7 8 10 22
6 30 -3 10 1 15 12 15 12 0 25 15 36 41 10 22 16 42 15 43 -2 2 -13 8 -24 14
-20 11 -20 12 3 18 29 8 29 34 0 34 -19 0 -20 2 -8 10 13 9 13 12 -2 21 -22
12 -23 35 -2 74 9 17 17 53 18 80 1 42 -2 50 -16 47 -24 -4 -29 11 -17 47 9
26 7 38 -11 77 -18 37 -20 50 -11 67 6 12 9 38 5 57 -3 19 -6 40 -6 47 -1 7
-5 10 -9 7 -4 -2 -13 12 -18 33 -15 51 -14 63 4 57 8 -4 15 -4 15 -1 0 13 -30
118 -36 129 -4 6 -6 47 -5 91 1 72 0 79 -19 84 -24 6 -27 21 -4 19 11 -1 21
13 29 41 7 23 10 44 7 47 -3 3 3 8 12 12 9 4 16 17 16 33 0 15 3 31 6 34 10 9
13 285 4 316 -7 28 8 78 29 90 7 5 15 27 18 50 l6 41 -392 0 -391 0 0 -683z
m190 514 c0 -5 12 -23 26 -40 14 -17 20 -31 14 -31 -7 0 -10 -7 -6 -15 8 -23
-5 -105 -17 -105 -6 0 -18 7 -28 16 -14 13 -16 20 -7 40 9 19 8 32 -3 57 -17
38 -14 87 7 87 8 0 14 -4 14 -9z m20 -441 c0 -5 -4 -10 -10 -10 -5 0 -10 5
-10 10 0 6 5 10 10 10 6 0 10 -4 10 -10z m34 -173 c-3 -9 -10 -17 -15 -17 -5
0 -7 -11 -3 -25 7 -27 -10 -35 -20 -9 -8 20 4 67 18 76 15 10 28 -6 20 -25z
m66 -472 c7 -9 14 -37 15 -63 1 -26 0 -41 -2 -34 -3 6 -15 12 -27 12 -37 0
-46 17 -28 61 17 43 23 47 42 24z m55 -115 c-3 -5 -10 -10 -16 -10 -5 0 -9 5
-9 10 0 6 7 10 16 10 8 0 12 -4 9 -10z m-99 -45 c31 -31 24 -45 -22 -45 -28 0
-36 5 -44 25 -5 14 -15 26 -22 26 -11 1 29 14 55 18 4 0 19 -10 33 -24z"/>
<path d="M4262 6367 c-7 -18 -12 -54 -12 -80 0 -35 -4 -47 -15 -47 -17 0 -21
-65 -5 -90 8 -12 10 -10 10 11 0 14 10 36 22 49 13 13 21 32 20 42 -4 24 9 23
31 -2 18 -21 47 -27 47 -10 0 19 29 22 45 6 9 -9 25 -16 34 -16 10 0 24 -7 31
-15 9 -10 9 -15 1 -15 -6 0 -11 -10 -12 -22 l0 -23 -9 23 c-5 12 -13 22 -17
22 -13 -1 -63 -48 -63 -60 0 -5 -9 -19 -20 -30 -11 -11 -15 -20 -9 -20 5 0 8
-4 5 -9 -3 -5 1 -11 9 -15 18 -6 20 -58 4 -87 -12 -24 4 -51 27 -42 24 9 19
-99 -6 -122 -11 -10 -17 -23 -12 -31 4 -7 6 -33 4 -58 -3 -36 -8 -45 -26 -50
-22 -5 -52 -66 -37 -75 4 -4 14 -23 22 -44 10 -30 17 -36 32 -31 14 4 17 2 12
-6 -4 -7 -17 -9 -31 -6 -14 4 -24 2 -24 -4 0 -5 5 -10 12 -10 9 0 9 -3 0 -12
-9 -9 -7 -15 6 -25 15 -12 14 -12 -8 -4 -14 5 -54 23 -89 40 -47 22 -60 32
-48 37 21 8 22 24 2 24 -8 0 -15 -5 -15 -11 0 -8 -11 -9 -32 -5 -40 8 -46 14
-28 27 11 8 6 9 -20 6 -19 -3 -42 -1 -51 4 -9 4 -27 10 -40 13 -13 3 -62 17
-109 31 -140 43 -147 45 -350 80 -107 18 -188 34 -180 35 23 1 -28 40 -54 40
l-21 0 23 18 22 17 -35 11 c-32 10 -36 9 -71 -27 -29 -30 -43 -37 -61 -33 -13
4 -35 3 -50 -1 -24 -6 -25 -8 -9 -14 12 -5 -12 -12 -65 -19 -111 -16 -261 -47
-384 -79 -55 -15 -117 -27 -137 -27 -22 0 -38 -5 -38 -12 0 -6 -39 -31 -87
-55 -49 -24 -90 -46 -93 -49 -3 -3 -50 -36 -105 -72 -136 -91 -180 -123 -265
-193 -66 -54 -73 -58 -85 -42 -11 15 -13 16 -18 2 -4 -8 -3 -14 1 -14 24 4 19
-7 -24 -58 -26 -32 -52 -63 -58 -68 -38 -35 -139 -161 -176 -218 -39 -59 -45
-65 -52 -46 -4 11 -5 32 -2 46 5 17 3 24 -4 19 -6 -3 -14 -1 -18 5 -5 8 0 10
17 6 34 -9 55 5 34 23 -8 7 -15 18 -15 25 0 18 -41 32 -75 25 -41 -8 -105 10
-106 30 0 10 -3 9 -9 -5 -12 -28 -12 -95 0 -95 6 0 10 -7 10 -15 0 -9 9 -15
23 -15 30 0 40 -10 26 -27 -15 -17 -24 -17 -44 4 -14 14 -18 14 -26 2 -12 -19
-11 -29 1 -29 6 0 11 -10 11 -22 1 -18 2 -19 6 -5 4 15 11 12 49 -22 24 -23
48 -41 54 -41 5 0 17 11 26 25 24 37 26 26 6 -31 -15 -40 -22 -49 -42 -50 -45
-2 -51 -4 -45 -14 8 -14 -28 -13 -42 1 -6 6 -19 9 -29 6 -16 -4 -15 -5 4 -6
25 -1 31 -35 8 -44 -9 -4 -12 -14 -9 -26 6 -22 -14 -54 -28 -46 -4 3 -12 -3
-18 -12 -9 -15 -10 -13 -11 15 0 25 4 32 20 32 23 0 26 15 6 27 -8 4 -15 10
-15 13 0 3 -3 13 -6 23 -12 30 -39 19 -57 -24 -16 -38 -16 -42 0 -77 9 -20 20
-38 25 -40 10 -5 9 -80 -2 -84 -16 -6 -15 -32 3 -106 10 -40 15 -85 12 -100
-3 -15 -8 -42 -11 -61 -5 -32 -5 -33 22 -26 l28 6 -34 -34 c-21 -22 -40 -33
-50 -30 -13 4 -13 3 -2 -5 11 -8 6 -19 -25 -56 -37 -44 -92 -75 -141 -79 -12
0 -20 -3 -17 -6 2 -3 -19 -11 -48 -18 -120 -30 -265 -102 -314 -156 -102 -112
-133 -170 -134 -247 0 -29 -51 -225 -75 -290 -17 -47 -34 -86 -62 -147 -13
-27 -19 -70 -21 -153 -2 -63 -8 -119 -13 -124 -5 -6 -9 0 -9 16 0 15 -5 30
-11 33 -6 4 -8 14 -4 23 3 8 -3 23 -15 34 -11 10 -22 31 -26 46 -9 41 -40 113
-49 114 -4 0 -11 -5 -14 -10 -3 -5 -21 -13 -39 -17 -29 -6 -34 -4 -39 15 -5
20 -8 20 -44 -16 -22 -21 -39 -32 -39 -25 0 10 -3 11 -14 2 -8 -6 -18 -11 -22
-10 -5 1 -16 -1 -26 -5 -15 -7 -16 -44 -18 -396 l-1 -388 38 -6 c21 -3 48 -6
61 -6 13 0 31 -7 39 -16 12 -12 35 -15 97 -14 114 3 107 6 101 -42 -3 -23 -6
-216 -7 -428 -2 -405 6 -505 51 -710 11 -47 22 -108 26 -137 6 -47 5 -53 -17
-64 -13 -7 -27 -14 -33 -15 -103 -25 -157 -26 -203 -4 -36 18 -52 20 -95 13
-44 -7 -53 -12 -55 -32 -4 -26 12 -64 40 -95 20 -22 8 -46 -22 -46 -16 0 -17
-22 -19 -290 l-2 -290 536 0 536 0 -5 43 c-3 23 -8 105 -11 182 -8 197 -25
409 -33 417 -4 4 -5 -52 -3 -124 l3 -131 -63 7 c-35 4 -109 11 -164 16 -186
17 -237 36 -270 100 -31 62 -133 473 -154 625 -28 201 -31 253 -31 504 0 237
18 531 35 580 3 7 12 181 20 385 15 357 25 450 55 491 25 35 77 215 110 380
23 118 28 129 95 200 l56 60 -37 -60 c-20 -33 -44 -70 -52 -82 -8 -13 -10 -23
-5 -23 6 0 31 33 56 73 68 107 117 149 214 184 80 30 107 23 38 -10 -23 -11
-45 -35 -65 -69 -17 -29 -49 -82 -70 -117 -42 -66 -46 -76 -31 -66 10 6 71 93
71 101 0 2 12 22 28 43 15 21 34 49 42 61 16 23 224 130 253 130 26 0 21 -37
-8 -64 -14 -13 -52 -38 -85 -55 -71 -38 -104 -79 -144 -180 -23 -55 -27 -74
-18 -83 9 -9 32 8 100 74 198 196 232 219 232 159 0 -19 -18 -46 -65 -96 -36
-39 -94 -118 -130 -176 -53 -88 -68 -122 -85 -198 -40 -181 -113 -347 -181
-411 -47 -45 -52 -65 -45 -183 10 -168 23 -269 67 -517 22 -124 47 -263 55
-310 8 -46 23 -125 34 -175 32 -152 41 -232 47 -452 5 -192 14 -255 26 -191 3
19 4 18 3 -3 0 -15 5 -33 11 -40 6 -8 16 -63 23 -124 10 -99 20 -149 20 -99
-1 43 -21 246 -35 348 -8 61 -12 112 -10 115 7 6 55 -46 174 -186 93 -111 111
-131 111 -119 0 2 -27 36 -60 77 -33 40 -60 79 -60 85 0 19 137 66 372 128
160 42 163 41 214 -85 14 -35 37 -89 51 -119 14 -30 34 -79 45 -109 18 -47 22
-52 33 -38 10 14 16 11 43 -29 18 -24 32 -46 32 -48 0 -2 20 -34 45 -70 25
-37 45 -73 45 -80 0 -7 8 -21 19 -32 21 -23 67 -103 102 -176 7 -16 14 -26 17
-23 16 15 -221 436 -295 525 -10 12 -28 33 -40 48 -12 14 -30 44 -41 66 -33
70 -53 118 -50 121 32 26 260 154 378 211 148 72 230 86 349 61 47 -10 56 -16
62 -39 6 -23 40 -75 74 -114 44 -50 160 -164 168 -164 5 0 -28 37 -73 83 -90
91 -155 180 -146 203 4 10 23 14 73 14 63 0 70 -2 97 -30 30 -32 125 -103 189
-140 55 -33 45 -18 -15 20 -63 41 -148 118 -148 135 0 6 78 42 173 80 104 41
181 77 195 92 27 30 28 55 2 203 -11 63 -20 116 -20 118 0 11 37 -3 73 -28 25
-16 54 -30 66 -30 12 0 21 -5 21 -10 0 -7 6 -7 19 -1 10 6 21 8 24 4 3 -3 14
-2 24 2 10 5 24 7 32 6 8 -1 17 3 21 9 5 9 9 9 14 1 4 -6 0 -14 -8 -17 -9 -3
-16 -10 -16 -15 0 -5 10 -4 21 3 17 10 23 10 26 1 7 -19 43 8 43 32 0 14 3 16
8 7 6 -9 16 -4 35 18 19 21 36 30 57 30 27 0 29 -3 25 -27 -16 -93 -25 -197
-25 -285 0 -83 2 -99 14 -95 8 3 30 1 48 -4 18 -6 65 -19 103 -29 57 -16 246
-75 304 -95 11 -4 10 -10 -5 -26 -33 -36 -161 -116 -216 -135 -29 -10 -46 -20
-37 -22 28 -5 180 74 253 133 38 30 76 55 83 55 33 0 153 -24 153 -30 0 -11
-42 -62 -75 -91 -81 -70 -86 -78 -26 -38 35 24 80 63 101 86 45 52 51 52 213
18 129 -27 162 -41 195 -88 49 -70 50 -71 92 -69 55 4 111 -13 146 -43 16 -14
31 -25 34 -25 3 0 14 -14 24 -31 18 -31 18 -69 1 -169 -3 -14 2 -7 9 15 8 22
15 63 15 92 1 45 -3 57 -30 88 -36 40 -34 50 5 35 42 -16 55 -11 19 6 -18 9
-33 21 -33 27 0 17 53 58 110 84 101 46 179 16 356 -137 69 -60 100 -73 51
-22 -15 16 -27 33 -27 39 0 9 138 83 154 83 3 0 30 11 60 25 30 14 59 25 64
25 13 0 59 -241 72 -375 5 -60 15 -134 20 -165 9 -48 42 -258 85 -535 7 -49
17 -114 20 -142 l7 -53 249 0 249 0 0 120 0 120 -45 0 c-45 0 -45 0 -45 36 0
19 -7 42 -15 50 -13 14 -17 14 -30 0 -8 -8 -15 -31 -15 -50 0 -25 -4 -36 -15
-36 -11 0 -15 11 -15 41 0 72 -31 99 -72 62 -17 -15 -19 -14 -29 15 -9 26 -15
31 -35 28 -22 -4 -24 -2 -26 42 l-1 47 -7 -50 -7 -50 -1 53 c-2 62 -19 69 -25
10 -2 -24 -4 -3 -4 47 0 49 2 96 4 105 4 15 27 29 113 70 102 49 126 102 160
363 21 169 28 453 10 442 -6 -4 -10 -62 -9 -143 0 -148 -10 -254 -43 -430 -26
-141 -42 -166 -133 -212 -90 -45 -265 -105 -275 -94 -16 19 -47 206 -55 334
-7 119 -17 204 -25 215 -8 10 -26 91 -36 158 -3 17 -5 109 -6 202 0 166 12
299 52 575 11 74 24 176 30 225 44 381 61 555 63 650 l2 110 -58 110 c-56 108
-97 228 -118 349 -19 114 -34 173 -47 189 -32 38 -159 115 -202 122 -88 13
-166 66 -123 82 25 10 139 -13 241 -47 49 -16 107 -30 128 -30 l37 0 -44 28
c-102 66 -151 92 -207 111 -82 26 -115 45 -146 81 -40 48 -19 64 46 36 18 -8
75 -27 126 -42 65 -19 117 -43 175 -81 74 -48 97 -60 97 -49 0 2 -31 24 -70
50 -59 40 -102 77 -74 65 158 -72 224 -117 224 -153 0 -6 12 -24 26 -41 l25
-30 -16 33 c-24 49 -12 50 35 3 41 -42 53 -63 75 -141 38 -131 159 -441 221
-565 l15 -30 -6 29 c-4 16 -19 57 -34 90 -15 34 -38 88 -51 121 -13 33 -29 69
-36 80 -6 11 -26 67 -44 125 -18 58 -38 119 -46 135 -7 17 -16 44 -20 60 -20
82 -127 189 -258 256 -79 41 -116 53 -186 64 -88 13 -182 48 -277 104 -53 30
-62 41 -77 90 -16 53 -79 207 -108 265 -11 21 -15 35 -10 32 13 -8 24 36 11
49 -6 6 -2 15 12 26 15 11 22 29 24 57 1 23 -2 39 -6 36 -5 -3 -9 -14 -9 -25
0 -18 -2 -19 -15 -5 -23 22 -26 112 -6 153 9 18 21 31 27 29 7 -3 14 13 18 37
4 26 3 43 -4 45 -22 8 -8 20 30 26 22 3 40 9 40 12 0 3 -11 15 -25 26 -19 15
-25 29 -25 59 0 21 -3 39 -7 39 -5 0 -7 22 -6 50 1 27 -3 50 -8 50 -5 0 -9 -6
-9 -12 -1 -22 -17 14 -24 53 -7 39 -46 84 -53 61 -3 -6 -9 -9 -14 -6 -6 3 -5
12 3 22 10 12 11 16 0 20 -15 5 -42 66 -42 94 0 19 -1 19 -21 -3 -11 -13 -18
-19 -15 -12 4 7 -1 9 -14 6 -15 -4 -19 -11 -14 -25 3 -12 -1 -27 -12 -39 -17
-18 -16 -19 17 -19 l34 -1 -45 -16 c-25 -8 -52 -21 -60 -28 -8 -7 -21 -10 -27
-8 -7 3 -16 -2 -19 -11 -8 -21 -39 -20 -62 2 -10 9 -27 22 -38 28 -14 8 -19
24 -21 72 -1 33 -9 74 -17 91 -9 16 -16 45 -16 63 0 18 -5 53 -11 77 -9 39 -7
46 12 67 13 14 20 31 16 43 -3 11 -1 21 3 23 18 6 -3 60 -26 68 -14 6 -24 17
-23 27 1 17 2 17 6 1 9 -37 23 -16 23 36 0 59 -11 76 -37 55 -13 -11 -17 -10
-29 6 -8 10 -14 25 -14 32 0 17 -17 17 -23 1 -2 -7 -3 -4 -1 7 2 11 4 35 4 53
0 27 3 32 25 32 25 0 25 1 25 80 0 64 -3 80 -15 80 -25 0 -17 17 20 47 30 24
35 34 35 71 0 35 -3 42 -20 42 -17 0 -20 -7 -20 -40 0 -22 -4 -40 -10 -40 -5
0 -10 18 -10 40 l0 40 -158 0 -158 0 -12 -33z m295 -119 c-3 -8 -6 -5 -6 6 -1
11 2 17 5 13 3 -3 4 -12 1 -19z m-77 -173 c0 -3 -9 -14 -20 -25 -11 -11 -20
-27 -20 -35 0 -8 -9 -15 -20 -15 -22 0 -23 3 -14 49 6 27 10 31 40 31 19 0 34
-2 34 -5z m140 -171 c0 -9 -5 -14 -12 -12 -18 6 -21 28 -4 28 9 0 16 -7 16
-16z m-1313 -160 c-3 -3 -12 -4 -19 -1 -8 3 -5 6 6 6 11 1 17 -2 13 -5z m1070
-260 c-3 -3 -12 -4 -19 -1 -8 3 -5 6 6 6 11 1 17 -2 13 -5z m643 -562 c0 -5
-9 -17 -19 -26 -21 -19 -37 -7 -27 19 6 16 46 21 46 7z m-67 -92 c16 -26 16
-29 2 -24 -14 6 -35 34 -35 48 0 16 18 3 33 -24z m-3496 -102 c-3 -7 -5 -2 -5
12 0 14 2 19 5 13 2 -7 2 -19 0 -25z m3623 -138 c0 -5 -2 -10 -4 -10 -3 0 -8
5 -11 10 -3 6 -1 10 4 10 6 0 11 -4 11 -10z m-3698 -98 c3 -11 0 -19 -7 -19
-7 0 -10 8 -7 19 2 10 6 18 7 18 1 0 5 -8 7 -18z m-83 -73 c1 -9 -5 -19 -11
-22 -10 -3 -12 8 -9 42 4 39 5 42 12 21 4 -14 7 -32 8 -41z m51 49 c-1 -7 -7
-24 -14 -37 l-13 -23 -6 23 c-11 39 -8 49 13 49 11 0 20 -6 20 -12z m-59 -231
c-10 -9 -11 -8 -5 6 3 10 9 15 12 12 3 -3 0 -11 -7 -18z m14 -78 c11 -16 1
-19 -13 -3 -7 8 -8 14 -3 14 5 0 13 -5 16 -11z m2176 -16 c4 -4 30 -57 57
-118 28 -60 63 -139 79 -175 16 -36 35 -81 43 -100 32 -85 35 -52 21 235 -4
83 -5 153 -2 156 7 8 257 -17 272 -27 13 -7 102 -145 97 -149 -2 -2 -30 6 -63
17 -62 22 -194 31 -195 13 0 -5 19 -8 43 -6 55 3 197 -42 236 -75 17 -14 36
-37 44 -52 17 -33 107 -201 139 -259 13 -24 28 -41 33 -39 10 3 9 179 -1 281
l-5 50 24 -28 c12 -15 35 -51 50 -80 15 -28 50 -92 78 -142 74 -133 89 -171
99 -249 10 -75 30 -582 30 -749 0 -91 -1 -98 -22 -108 -13 -6 -50 -45 -83 -86
-182 -230 -356 -348 -680 -462 -129 -46 -273 -65 -480 -65 -159 0 -195 3 -310
27 -212 46 -454 135 -567 211 -63 41 -171 135 -215 186 -74 87 -177 236 -199
291 -24 59 -25 67 -27 382 l-2 322 66 115 c87 151 110 193 182 330 113 215 99
199 210 238 54 19 101 31 104 28 3 -3 3 -20 -1 -39 -6 -31 -12 -36 -51 -47
-52 -15 -135 -64 -135 -81 0 -12 -3 -13 70 23 30 15 70 31 88 34 l32 7 0 -177
c0 -143 -3 -176 -14 -176 -32 0 -175 -55 -221 -85 -152 -100 -255 -261 -255
-399 0 -64 23 -136 63 -196 38 -57 36 -54 43 -47 4 4 2 13 -4 20 -24 28 -43
104 -43 170 -1 102 22 157 97 237 81 85 219 161 305 166 l54 4 -50 -13 c-86
-23 -119 -42 -172 -101 -61 -66 -77 -111 -76 -211 0 -55 6 -81 26 -121 35 -69
52 -82 76 -59 38 33 101 -17 67 -54 -31 -34 29 -63 136 -65 128 -2 219 59 263
176 14 37 16 68 13 140 -5 107 -26 166 -80 219 -39 39 -62 52 -133 73 l-50 15
60 -5 c33 -3 87 -16 120 -29 32 -14 61 -22 64 -19 6 6 -38 48 -119 116 -39 32
-42 37 -22 38 36 0 25 19 -15 25 -21 4 -43 8 -49 10 -10 3 43 151 116 325 10
25 31 75 46 112 31 75 17 68 164 83 l55 6 -3 -176 c-3 -97 -1 -215 4 -263 l7
-87 8 55 c31 214 73 466 79 473 17 20 362 29 381 10z m1491 -910 c43 -50 53
-85 53 -203 0 -114 -1 -117 -37 -191 -20 -41 -54 -91 -75 -110 -59 -54 -63
-55 -58 -12 2 21 7 113 11 206 l6 167 33 0 c44 0 85 16 85 33 0 24 -36 57 -70
63 -36 8 -48 27 -30 49 17 20 63 19 82 -2z m768 -13 c0 -5 -5 -10 -11 -10 -5
0 -7 5 -4 10 3 6 8 10 11 10 2 0 4 -4 4 -10z m24 -46 c3 -8 2 -12 -4 -9 -6 3
-10 10 -10 16 0 14 7 11 14 -7z m-4741 -48 c31 -21 55 -41 52 -44 -2 -3 -11 1
-20 8 -8 7 -15 8 -15 2 0 -12 29 -24 41 -16 5 3 24 -4 42 -15 18 -11 46 -27
62 -35 23 -12 25 -16 11 -16 -11 0 -28 7 -38 17 -17 15 -18 15 -18 -1 0 -10
11 -19 30 -22 17 -4 30 -11 30 -16 0 -6 -9 -8 -19 -5 -11 3 -29 -2 -40 -10
-12 -8 -21 -10 -21 -4 0 5 -15 9 -32 8 -29 -2 -33 -6 -36 -35 -2 -18 -7 -30
-12 -27 -4 3 -6 -4 -3 -15 4 -14 0 -20 -12 -20 -15 0 -17 -7 -13 -49 l5 -49
-41 -4 c-23 -3 -71 -4 -108 -3 -42 1 -68 -3 -68 -9 0 -6 -5 -4 -10 4 -7 11
-10 11 -10 2 0 -7 -4 -11 -9 -8 -5 4 -12 0 -14 -6 -3 -7 -6 2 -6 20 -1 17 4
32 9 32 6 0 10 5 10 11 0 6 13 28 28 48 29 38 112 175 112 186 0 3 8 18 17 32
10 15 18 31 19 37 0 6 2 19 2 29 2 22 2 22 75 -27z m631 7 c13 -82 10 -90 -35
-96 -77 -10 -74 -43 7 -79 48 -21 47 -17 69 -193 9 -71 18 -138 21 -147 15
-50 -81 28 -131 107 -52 81 -67 142 -63 250 3 85 6 97 33 136 26 36 49 52 86
58 4 1 9 -16 13 -36z m4131 -14 c-8 -23 4 -47 15 -29 16 25 40 -57 40 -137 0
-91 -10 -183 -19 -183 -4 0 -12 12 -19 28 -8 18 -10 20 -6 5 3 -13 1 -23 -5
-23 -6 0 -11 5 -11 11 0 5 -4 7 -10 4 -5 -3 -10 1 -10 10 0 9 -12 27 -27 41
-26 22 -27 25 -10 38 13 10 17 28 17 84 0 47 -4 72 -12 75 -7 2 0 6 15 9 21 4
27 2 23 -8 -3 -7 1 -28 10 -46 l15 -33 -6 45 c-17 130 -17 142 -6 135 7 -3 9
-15 6 -26z m-105 -115 c0 -2 -12 -4 -27 -4 -21 0 -24 3 -14 9 13 8 41 5 41 -5z
m-4503 -40 c-3 -3 -12 -4 -19 -1 -8 3 -5 6 6 6 11 1 17 -2 13 -5z m4318 -4 c3
-5 1 -10 -4 -10 -6 0 -11 5 -11 10 0 6 2 10 4 10 3 0 8 -4 11 -10z m165 0 c0
-5 -5 -10 -11 -10 -5 0 -7 5 -4 10 3 6 8 10 11 10 2 0 4 -4 4 -10z m-5600 -10
c0 -5 -4 -10 -10 -10 -5 0 -10 5 -10 10 0 6 5 10 10 10 6 0 10 -4 10 -10z
m1060 2 c0 -4 12 -8 28 -7 22 0 27 -4 27 -25 0 -35 -41 -41 -54 -8 -10 23 -10
23 -10 -4 -1 -18 -6 -28 -16 -28 -11 0 -15 11 -15 40 0 33 3 40 20 40 11 0 20
-4 20 -8z m-1022 -104 c7 -7 12 -20 12 -30 0 -12 8 -18 23 -19 20 -1 20 -2 2
-6 -11 -3 -24 -9 -29 -14 -15 -14 -26 -11 -27 9 0 10 -3 12 -6 5 -10 -26 -30
-12 -31 21 -1 33 3 37 39 45 3 0 10 -4 17 -11z m62 -24 c0 -8 -5 -12 -10 -9
-6 4 -8 11 -5 16 9 14 15 11 15 -7z m1854 -264 c14 -22 26 -42 26 -45 0 -8
-38 -6 -43 3 -7 11 -18 82 -14 82 2 0 16 -18 31 -40z m3561 -460 c5 -8 11 -8
20 0 10 8 15 8 21 -1 4 -8 3 -9 -4 -5 -7 4 -12 1 -12 -8 0 -9 -18 -25 -40 -36
-34 -17 -40 -18 -40 -5 0 8 -4 15 -10 15 -18 0 -11 20 8 21 16 1 16 2 0 6 -10
2 -18 9 -18 14 0 13 67 11 75 -1z m155 -87 c-7 -32 -13 -87 -14 -123 -2 -36
-7 -99 -12 -140 -5 -41 -8 -161 -7 -266 l1 -192 -76 -27 c-42 -15 -97 -39
-121 -52 -35 -21 -45 -23 -53 -12 -8 11 -9 10 -5 -3 4 -12 -3 -19 -24 -27 -28
-10 -36 -6 -104 44 -41 30 -79 55 -84 55 -6 0 -11 7 -11 15 0 18 4 17 -97 20
-62 2 -83 -1 -83 -10 0 -14 -23 -26 -42 -21 -7 1 -9 1 -5 -2 4 -2 -14 -19 -40
-37 -26 -19 -53 -39 -60 -44 -8 -7 -28 -8 -64 -1 -28 6 -68 10 -89 10 -30 0
-39 5 -51 28 -42 82 -105 113 -294 148 -49 10 -83 19 -75 22 8 3 26 9 40 15
35 14 124 12 162 -4 24 -10 33 -10 36 -1 2 7 21 12 43 12 21 0 39 5 39 10 0 6
-8 10 -17 10 -12 0 -14 3 -6 11 8 8 21 2 48 -22 20 -19 44 -37 53 -41 15 -6
15 -7 -1 -7 -10 -1 -17 -7 -14 -13 2 -7 14 -12 26 -10 15 2 28 -4 38 -17 18
-27 33 -27 33 -1 0 28 28 25 32 -2 4 -29 48 -39 48 -11 0 15 2 14 16 -5 9 -13
13 -29 10 -37 -3 -9 1 -15 9 -15 8 0 15 8 15 18 0 9 7 26 15 36 15 19 15 19
15 -2 0 -22 1 -22 36 -7 25 10 56 13 105 9 72 -5 85 0 47 16 -18 8 -13 9 19 4
34 -5 46 -2 65 16 l23 21 17 -20 c11 -14 28 -21 52 -21 25 0 36 -4 36 -15 0
-11 11 -15 38 -15 41 0 82 23 82 46 0 8 5 14 11 14 6 0 23 12 38 26 25 23 27
31 23 77 -2 34 -10 58 -22 68 -18 15 -17 17 13 31 25 12 35 26 47 64 8 28 16
41 18 32 7 -35 19 -17 20 31 0 28 8 64 17 81 9 17 13 35 10 41 -4 5 -1 8 6 7
6 -2 14 3 16 10 3 6 0 12 -6 12 -15 0 -14 43 1 94 l13 41 7 -35 c4 -21 5 -10
3 30 -3 36 0 72 5 80 6 10 8 3 3 -22 -3 -23 -2 -38 5 -38 5 0 13 26 18 58 4
31 9 47 12 35 2 -12 -2 -48 -8 -80z m-10 83 c0 -3 -4 -8 -10 -11 -5 -3 -10 -1
-10 4 0 6 5 11 10 11 6 0 10 -2 10 -4z m-4830 -145 c0 -9 -6 -23 -12 -30 -9
-9 -9 -12 -1 -7 7 4 14 -2 18 -14 5 -17 9 -19 21 -9 9 7 12 20 8 32 -4 13 -2
18 6 15 8 -2 13 -37 15 -102 1 -54 8 -103 14 -109 6 -6 11 -8 11 -5 0 4 15 1
34 -7 18 -8 36 -11 40 -8 3 4 6 -3 6 -14 0 -27 10 -35 27 -21 19 15 35 -8 26
-37 -4 -11 -6 -28 -5 -37 0 -10 -6 -18 -14 -18 -8 0 -14 -6 -14 -14 0 -21 -27
-40 -33 -24 -4 9 -6 8 -6 -3 -1 -8 -11 -35 -23 -60 -16 -34 -22 -63 -22 -126
-1 -96 -17 -106 -29 -17 -23 182 -60 416 -72 459 -19 64 -29 150 -21 170 7 20
26 10 26 -14z m2167 -90 c-3 -10 -5 -7 -6 7 -1 16 -7 22 -23 22 -23 1 -23 1
-3 16 18 13 20 13 28 -8 4 -12 6 -29 4 -37z m133 29 c8 -5 11 -10 5 -10 -5 0
-17 5 -25 10 -8 5 -10 10 -5 10 6 0 17 -5 25 -10z m240 6 c0 -17 -22 -56 -29
-52 -13 8 0 56 15 56 8 0 14 -2 14 -4z m-87 -17 c-6 -6 -39 -12 -74 -14 -50
-2 -55 -2 -24 4 l40 7 -35 6 c-24 3 -13 5 35 6 50 2 66 -1 58 -9z m-1556 -155
c3 -8 16 -20 29 -25 17 -6 24 -17 25 -36 1 -28 1 -28 10 5 5 17 14 32 19 32
14 0 23 -46 16 -77 -4 -19 -4 -23 3 -14 5 7 14 10 20 7 7 -5 11 8 11 39 0 43
1 45 24 39 13 -3 34 0 47 6 19 11 21 10 16 -4 -8 -19 18 -23 27 -3 5 10 7 10
12 0 8 -19 24 -16 24 5 0 10 3 13 8 6 4 -6 16 -9 27 -6 41 9 249 2 277 -10 33
-15 35 -22 9 -40 -10 -7 -20 -22 -23 -33 -2 -14 -10 -19 -26 -17 -23 3 -29 -7
-12 -24 6 -6 -4 -10 -28 -11 -56 -3 -73 -8 -83 -24 -13 -21 -11 -29 9 -30 11
0 12 -2 4 -6 -7 -3 -19 1 -28 8 -10 8 -18 9 -25 2 -7 -7 0 -14 23 -22 30 -11
32 -13 14 -23 -15 -8 -21 -8 -24 0 -2 7 -11 12 -19 12 -11 0 -13 -3 -5 -13 8
-10 -12 -25 -91 -66 -143 -75 -278 -152 -302 -172 -11 -9 -30 -20 -42 -24 -19
-5 -27 0 -43 28 -29 49 -49 53 -130 27 -38 -13 -152 -40 -185 -44 -11 -1 -30
-8 -42 -14 -12 -7 -31 -12 -43 -12 -20 0 -20 2 11 41 26 33 36 40 58 35 14 -3
20 -3 14 0 -33 14 14 94 55 94 15 0 15 2 2 10 -8 5 -27 10 -42 10 -21 0 -28 5
-28 20 0 11 -7 23 -16 27 -12 4 -12 8 -4 13 8 5 1 10 -19 15 -43 9 -44 45 -2
45 17 0 33 5 36 10 3 6 -1 10 -9 10 -12 0 -16 11 -16 43 l0 42 130 -3 c119 -3
130 -2 131 15 1 17 2 17 6 1 2 -10 14 -18 25 -18 11 0 27 -8 34 -17 12 -16 15
-16 24 -3 5 8 10 34 10 58 0 32 -4 42 -16 42 -9 0 -13 5 -10 13 3 6 9 20 12
30 9 23 102 25 111 1z m1285 -46 c-2 -32 -1 -39 7 -28 8 12 11 8 11 -17 0 -28
-6 -36 -40 -53 -21 -11 -47 -19 -57 -19 -17 1 -17 2 0 6 11 3 16 11 13 19 -3
9 1 14 14 14 11 0 19 3 19 8 -4 26 5 32 11 7 6 -24 8 -18 9 31 1 49 6 74 15
74 1 0 0 -19 -2 -42z m-652 22 c0 -5 -5 -10 -11 -10 -5 0 -7 5 -4 10 3 6 8 10
11 10 2 0 4 -4 4 -10z m4 -67 c-17 -57 -21 -61 -21 -23 0 17 4 30 8 30 3 0 9
9 12 20 3 11 7 20 10 20 3 0 -1 -21 -9 -47z m1184 -20 c35 -13 42 -43 10 -43
-12 0 -19 -3 -15 -6 12 -12 59 6 54 20 -3 8 2 16 12 19 15 3 17 0 14 -17 -5
-20 -4 -20 14 2 17 21 25 23 64 17 24 -4 45 -8 47 -10 9 -9 -28 -72 -49 -83
-22 -11 -37 -10 -109 10 l-85 24 -3 48 c-2 32 0 46 7 41 6 -3 12 2 12 12 1 12
3 11 6 -5 3 -13 12 -26 21 -29z m1712 22 c0 -8 -4 -15 -9 -15 -13 0 -22 16
-14 24 11 11 23 6 23 -9z m-4040 -67 c0 -36 -4 -35 -14 5 -4 16 -2 27 4 27 5
0 10 -14 10 -32z m4220 -14 c0 -8 -5 -12 -10 -9 -6 4 -8 11 -5 16 9 14 15 11
15 -7z m-1653 -36 c-3 -7 -5 -2 -5 12 0 14 2 19 5 13 2 -7 2 -19 0 -25z m1666
-80 c15 -9 4 -20 -14 -13 -10 4 -13 18 -9 53 l5 47 3 -40 c2 -22 9 -43 15 -47z
m-1700 59 c-2 -4 10 -10 27 -13 17 -4 33 -10 35 -14 3 -4 -12 -4 -33 2 -20 5
-47 12 -59 15 -33 8 -28 20 6 19 16 -1 27 -4 24 -9z m884 -49 c-3 -8 -6 -5 -6
6 -1 11 2 17 5 13 3 -3 4 -12 1 -19z m283 -79 c0 -6 -4 -7 -10 -4 -5 3 -10 11
-10 16 0 6 5 7 10 4 6 -3 10 -11 10 -16z m225 -8 c-3 -6 -11 -11 -16 -11 -5 0
-4 6 3 14 14 16 24 13 13 -3z m-85 -15 c0 -2 -11 -6 -25 -8 -14 -3 -25 -1 -25
3 0 5 11 9 25 9 14 0 25 -2 25 -4z m-3770 -48 c0 -10 -7 -18 -15 -18 -17 0
-18 4 -8 38 4 18 8 20 14 10 5 -7 9 -21 9 -30z m-57 -30 c-6 -7 -13 -20 -16
-28 -3 -9 -6 -3 -6 13 -1 19 4 27 15 27 12 0 14 -4 7 -12z m-46 -84 c-3 -3
-12 -4 -19 -1 -8 3 -5 6 6 6 11 1 17 -2 13 -5z"/>
<path d="M3798 3648 c-66 -14 -62 -32 5 -24 l52 7 -35 -28 c-19 -15 -50 -43
-70 -60 -30 -27 -32 -32 -15 -33 11 0 42 7 69 15 76 23 252 20 318 -5 192 -72
321 -278 305 -485 -5 -71 2 -96 18 -57 4 9 9 65 12 125 7 132 -11 209 -69 300
-51 78 -139 164 -204 199 -97 53 -261 72 -386 46z"/>
<path d="M3913 3514 c-50 -18 -103 -63 -138 -119 -29 -47 -30 -53 -30 -164 0
-106 2 -120 25 -161 25 -43 28 -45 66 -42 52 4 73 -16 55 -54 -17 -38 -15 -40
45 -63 80 -30 168 -29 226 4 60 34 142 121 158 169 15 46 8 136 -16 214 -23
72 -137 187 -204 206 -60 17 -152 22 -187 10z"/>
<path d="M3192 2204 c-21 -22 -32 -43 -30 -56 3 -22 64 -66 75 -54 3 3 -3 9
-13 13 -26 10 -44 29 -44 47 0 20 68 64 118 75 36 9 36 9 -18 10 -50 1 -58 -2
-88 -35z"/>
<path d="M3400 2220 c12 -12 25 -18 30 -15 6 4 10 -2 11 -12 0 -11 3 -13 6 -5
3 8 11 5 24 -12 24 -30 24 -35 -3 -63 -16 -18 -18 -23 -6 -23 20 0 48 32 48
56 -1 37 -70 94 -115 94 -12 0 -11 -4 5 -20z"/>
<path d="M3356 2213 c-6 -14 -5 -15 5 -6 7 7 10 15 7 18 -3 3 -9 -2 -12 -12z"/>
<path d="M1104 3053 c14 -4 16 -7 6 -13 -7 -5 -9 -13 -5 -21 6 -9 10 -8 15 7
9 24 4 34 -18 33 -14 -1 -14 -2 2 -6z"/>
<path d="M5760 2941 c0 -11 5 -23 10 -26 6 -4 10 5 10 19 0 14 -4 26 -10 26
-5 0 -10 -9 -10 -19z"/>
<path d="M5670 1895 c0 -14 5 -25 10 -25 6 0 10 11 10 25 0 14 -4 25 -10 25
-5 0 -10 -11 -10 -25z"/>
<path d="M5702 1895 c0 -16 2 -22 5 -12 2 9 2 23 0 30 -3 6 -5 -1 -5 -18z"/>
<path d="M5602 1620 c0 -14 2 -19 5 -12 2 6 2 18 0 25 -3 6 -5 1 -5 -13z"/>
<path d="M4375 1400 c3 -5 10 -10 16 -10 5 0 9 5 9 10 0 6 -7 10 -16 10 -8 0
-12 -4 -9 -10z"/>
<path d="M5398 1283 c7 -3 16 -2 19 1 4 3 -2 6 -13 5 -11 0 -14 -3 -6 -6z"/>
<path d="M5478 1273 c7 -3 16 -2 19 1 4 3 -2 6 -13 5 -11 0 -14 -3 -6 -6z"/>
<path d="M4950 1259 c0 -5 5 -7 10 -4 6 3 10 8 10 11 0 2 -4 4 -10 4 -5 0 -10
-5 -10 -11z"/>
<path d="M871 1944 c0 -11 3 -14 6 -6 3 7 2 16 -1 19 -3 4 -6 -2 -5 -13z"/>
<path d="M910 1808 c0 -18 5 -28 15 -28 19 0 19 11 0 36 -14 18 -14 18 -15 -8z"/>
<path d="M915 1750 c3 -5 8 -10 11 -10 2 0 4 5 4 10 0 6 -5 10 -11 10 -5 0 -7
-4 -4 -10z"/>
<path d="M1861 1664 c0 -11 3 -14 6 -6 3 7 2 16 -1 19 -3 4 -6 -2 -5 -13z"/>
<path d="M1693 1540 c-6 -24 -58 -28 -67 -5 -3 8 -10 15 -16 15 -5 0 -10 -7
-10 -15 0 -12 -16 -15 -80 -15 -47 0 -80 -4 -80 -10 0 -5 23 -10 50 -10 47 0
66 -12 38 -23 -7 -3 6 -6 30 -6 34 -1 42 2 42 17 0 14 7 17 40 14 26 -3 40 -9
40 -18 0 -18 14 -18 30 1 7 8 21 15 30 15 17 0 17 2 4 30 -18 34 -43 39 -51
10z"/>
<path d="M1680 1444 c0 -8 5 -12 10 -9 6 3 10 10 10 16 0 5 -4 9 -10 9 -5 0
-10 -7 -10 -16z"/>
<path d="M1360 1430 c0 -5 9 -10 19 -10 11 0 23 5 26 10 4 6 -5 10 -19 10 -14
0 -26 -4 -26 -10z"/>
<path d="M1440 1420 c0 -23 10 -26 28 -8 18 18 15 28 -8 28 -13 0 -20 -7 -20
-20z"/>
<path d="M1534 1418 c3 -13 6 -26 6 -30 0 -5 5 -8 10 -8 6 0 10 14 10 30 0 21
-5 30 -16 30 -12 0 -15 -6 -10 -22z"/>
<path d="M1580 1428 c0 -7 5 -20 10 -28 8 -12 10 -9 10 13 0 15 -4 27 -10 27
-5 0 -10 -6 -10 -12z"/>
<path d="M2058 1433 c7 -3 16 -2 19 1 4 3 -2 6 -13 5 -11 0 -14 -3 -6 -6z"/>
<path d="M5932 6363 c-10 -37 -6 -119 17 -313 5 -47 5 -85 -2 -103 -5 -16 -7
-57 -3 -92 3 -34 1 -96 -5 -136 -6 -41 -12 -103 -15 -139 -6 -95 -11 -132 -22
-160 -5 -14 -6 -34 -1 -45 11 -29 11 -95 -1 -95 -13 0 -13 -97 0 -105 6 -4 8
-11 4 -16 -3 -5 -7 -55 -9 -110 -1 -55 -5 -103 -9 -106 -3 -4 -6 -1 -6 5 0 7
-6 12 -14 12 -11 0 -11 -9 1 -57 24 -96 35 -137 43 -163 l8 -25 1 28 c1 22 6
27 25 27 59 0 79 -36 26 -47 -35 -7 -39 -40 -5 -35 11 2 30 3 43 3 17 -1 22 5
22 23 0 33 29 98 40 91 15 -9 12 58 -4 91 -27 57 -28 72 -7 86 12 7 21 22 21
33 0 12 5 26 11 32 8 8 6 18 -6 37 -17 25 -17 28 8 65 21 31 34 40 66 46 27 4
42 13 46 26 4 11 21 27 38 36 l32 18 -28 3 c-20 2 -27 8 -25 20 3 12 12 16 30
14 19 -2 27 3 32 20 3 13 1 24 -4 26 -5 2 -5 11 2 22 9 14 6 29 -16 76 -16 33
-31 61 -35 64 -10 8 -31 96 -31 130 0 22 -5 30 -17 30 -21 0 41 68 75 81 18 7
22 16 22 48 0 22 -3 47 -7 56 -5 15 -8 14 -19 -6 -13 -23 -13 -21 -14 22 0 32
-5 49 -15 53 -8 3 -15 12 -15 21 0 8 7 15 15 15 27 0 18 58 -12 85 l-28 24 24
1 c22 0 23 3 17 40 -4 25 -2 40 4 40 5 0 10 18 10 40 0 22 5 40 10 40 6 0 10
-8 10 -17 0 -12 10 -7 35 20 29 31 34 42 29 65 -4 15 -8 28 -9 30 -6 8 -32
-11 -40 -30 -14 -30 -33 -34 -37 -7 -2 16 -13 25 -35 31 -38 10 -42 29 -10 51
20 15 13 16 -114 16 l-136 1 -11 -37z m298 -47 c0 -9 -30 -14 -35 -6 -4 6 3
10 14 10 12 0 21 -2 21 -4z m-250 -177 c0 -11 -4 -17 -10 -14 -5 3 -10 13 -10
21 0 8 5 14 10 14 6 0 10 -9 10 -21z m130 -50 c9 -15 8 -24 -1 -35 -19 -23
-29 -16 -29 21 0 39 14 46 30 14z m70 1 c0 -5 -4 -10 -10 -10 -5 0 -10 5 -10
10 0 6 5 10 10 10 6 0 10 -4 10 -10z m-200 -50 c0 -22 -4 -40 -10 -40 -5 0
-10 18 -10 40 0 22 5 40 10 40 6 0 10 -18 10 -40z m207 -46 c-3 -3 -12 -4 -19
-1 -8 3 -5 6 6 6 11 1 17 -2 13 -5z m-208 -268 c-16 -18 -21 26 -13 112 l8 87
7 -95 c3 -52 2 -99 -2 -104z m164 180 c21 -16 23 -66 2 -66 -10 0 -15 -10 -15
-30 0 -36 -4 -37 -47 -7 -29 20 -33 27 -33 70 l0 47 38 0 c20 0 45 -7 55 -14z
m3 -248 c-3 -13 -6 -32 -6 -43 0 -17 -2 -17 -10 -5 -16 25 -12 70 6 70 12 0
15 -6 10 -22z m-26 -279 c10 -18 9 -20 -12 -17 -12 2 -24 11 -26 21 -5 24 25
22 38 -4z"/>
<path d="M3494 6342 c-11 -7 -18 -33 -15 -58 2 -19 27 -24 65 -13 38 11 43 18
24 37 -9 9 -7 12 9 12 14 0 23 -7 25 -20 3 -21 3 -21 15 -1 10 16 10 23 -3 36
-16 16 -99 21 -120 7z"/>
<path d="M4112 6337 c-7 -8 -6 -17 2 -30 16 -21 46 -23 46 -2 0 11 11 15 40
15 22 0 40 5 40 10 0 7 -20 10 -48 9 -27 -1 -53 1 -59 4 -6 4 -15 1 -21 -6z"/>
<path d="M3920 6284 c0 -8 5 -12 10 -9 6 4 8 11 5 16 -9 14 -15 11 -15 -7z"/>
<path d="M4125 6250 c-3 -5 4 -14 15 -20 16 -8 20 -8 20 4 0 16 -27 29 -35 16z"/>
<path d="M890 6170 c-12 -8 -10 -10 8 -10 13 0 20 4 17 10 -7 12 -6 12 -25 0z"/>
<path d="M4181 6144 c0 -11 3 -14 6 -6 3 7 2 16 -1 19 -3 4 -6 -2 -5 -13z"/>
<path d="M6240 6101 c0 -12 5 -21 10 -21 6 0 10 6 10 14 0 8 -4 18 -10 21 -5
3 -10 -3 -10 -14z"/>
<path d="M880 6038 c0 -21 5 -38 10 -38 6 0 10 -9 10 -19 0 -31 17 -34 24 -5
7 25 8 26 22 8 15 -18 15 -18 10 6 -3 14 -6 39 -6 55 0 28 -3 31 -35 31 -34 0
-35 -2 -35 -38z"/>
<path d="M960 6071 c0 -14 28 -33 40 -26 20 12 10 35 -15 35 -14 0 -25 -4 -25
-9z"/>
<path d="M4613 6073 c-18 -7 -16 -33 2 -33 8 0 15 9 15 20 0 11 -1 20 -2 19
-2 0 -9 -3 -15 -6z"/>
<path d="M3333 6003 c15 -2 27 -11 27 -19 0 -8 5 -14 11 -14 6 0 9 8 7 18 -2
12 -13 17 -38 18 -26 1 -28 1 -7 -3z"/>
<path d="M4897 5986 c-21 -16 -22 -36 -3 -36 8 0 18 9 21 21 9 27 4 30 -18 15z"/>
<path d="M6250 5986 c0 -8 5 -18 10 -21 6 -3 10 3 10 14 0 12 -4 21 -10 21 -5
0 -10 -6 -10 -14z"/>
<path d="M3240 5970 c-13 -9 -13 -11 0 -20 8 -5 21 -10 28 -10 6 0 12 -4 12
-10 0 -5 -9 -10 -20 -10 -11 0 -20 -4 -20 -10 0 -14 48 -43 60 -35 18 11 11
69 -10 88 -23 20 -29 20 -50 7z"/>
<path d="M3535 5970 c-3 -5 3 -10 15 -10 12 0 18 5 15 10 -3 6 -10 10 -15 10
-5 0 -12 -4 -15 -10z"/>
<path d="M4108 5961 c-7 -11 -18 -21 -25 -21 -7 0 -13 -4 -13 -10 0 -17 36
-11 55 10 13 15 16 23 8 31 -8 8 -15 6 -25 -10z"/>
<path d="M3501 5914 c-21 -16 -12 -23 33 -31 34 -5 36 -4 36 21 0 22 -4 25
-26 24 -15 -2 -34 -8 -43 -14z"/>
<path d="M4360 5911 c0 -6 5 -13 10 -16 6 -3 10 1 10 9 0 9 -4 16 -10 16 -5 0
-10 -4 -10 -9z"/>
<path d="M4872 5900 c0 -14 2 -19 5 -12 2 6 2 18 0 25 -3 6 -5 1 -5 -13z"/>
<path d="M2517 5713 c-12 -12 -7 -33 8 -33 17 0 19 9 7 28 -5 7 -11 9 -15 5z"/>
<path d="M3980 5690 c-13 -8 -12 -10 3 -10 9 0 17 5 17 10 0 12 -1 12 -20 0z"/>
<path d="M4224 5671 c-13 -32 -8 -41 30 -55 24 -8 35 7 28 40 -3 19 -10 24
-23 21 -11 -3 -19 1 -21 10 -2 9 -8 2 -14 -16z"/>
<path d="M4808 5673 c7 -3 16 -2 19 1 4 3 -2 6 -13 5 -11 0 -14 -3 -6 -6z"/>
<path d="M3938 5663 c7 -3 16 -2 19 1 4 3 -2 6 -13 5 -11 0 -14 -3 -6 -6z"/>
<path d="M3985 5651 c-3 -6 -23 -12 -43 -12 -27 -1 -31 -3 -12 -6 14 -3 29 -9
35 -14 5 -5 16 -9 25 -9 13 0 13 1 0 10 -13 9 -13 11 0 19 8 6 12 13 8 16 -3
4 -9 2 -13 -4z"/>
<path d="M4065 5590 c3 -5 12 -7 20 -3 21 7 19 13 -6 13 -11 0 -18 -4 -14 -10z"/>
<path d="M6312 5560 c0 -14 2 -19 5 -12 2 6 2 18 0 25 -3 6 -5 1 -5 -13z"/>
<path d="M6346 5562 c-8 -13 18 -57 34 -57 19 0 26 45 8 56 -17 11 -35 11 -42
1z"/>
<path d="M880 5267 c0 -9 -6 -17 -14 -17 -16 0 -38 -24 -30 -33 4 -3 15 -2 25
4 15 7 19 6 19 -6 0 -9 -9 -15 -25 -15 -26 0 -32 -9 -15 -26 6 -6 1 -19 -15
-36 -26 -28 -32 -48 -15 -48 6 0 10 -11 10 -25 0 -14 5 -25 10 -25 6 0 10 -9
10 -19 0 -23 28 -54 41 -45 11 6 2 -40 -13 -69 -5 -10 -7 -21 -4 -24 3 -3 -1
-18 -9 -34 -20 -38 -20 -129 -1 -129 15 0 76 -58 76 -72 0 -5 -7 -8 -15 -8
-17 0 -21 -46 -6 -68 6 -10 10 -8 16 10 l7 23 8 -25 c12 -37 12 -100 0 -100
-17 0 4 -30 30 -43 28 -14 38 -37 16 -37 -12 0 -16 -10 -16 -40 0 -33 3 -40
19 -40 16 0 21 8 24 43 2 23 4 5 5 -40 1 -48 6 -83 12 -83 6 0 10 14 10 30 0
17 5 30 10 30 6 0 10 -5 10 -12 0 -20 11 -1 16 28 3 16 14 44 25 63 11 18 17
36 14 39 -3 3 -5 0 -5 -6 0 -7 -4 -12 -10 -12 -14 0 -24 70 -12 82 8 8 8 17 1
30 -8 15 -12 81 -19 311 0 9 -7 17 -15 17 -11 0 -15 21 -17 108 -2 59 -7 106
-12 104 -5 -2 -15 12 -23 30 -8 18 -21 36 -29 41 -8 5 -14 23 -14 45 0 31 -7
45 -40 77 -29 28 -40 34 -40 22z m63 -87 c-3 -11 -7 -20 -9 -20 -2 0 -4 9 -4
20 0 11 4 20 9 20 5 0 7 -9 4 -20z m-49 -448 c4 -7 1 -12 -8 -12 -12 0 -16 10
-15 43 1 40 1 40 8 11 4 -17 11 -36 15 -42z m166 28 c0 -5 -4 -10 -10 -10 -5
0 -10 5 -10 10 0 6 5 10 10 10 6 0 10 -4 10 -10z m-13 -112 c-3 -7 -5 -2 -5
12 0 14 2 19 5 13 2 -7 2 -19 0 -25z m-47 -88 c17 0 20 -7 20 -40 0 -38 -2
-40 -30 -40 -30 0 -30 0 -30 58 1 43 3 53 11 40 5 -10 19 -18 29 -18z m47
-152 c-3 -7 -5 -2 -5 12 0 14 2 19 5 13 2 -7 2 -19 0 -25z"/>
<path d="M6380 5111 c0 -6 5 -13 10 -16 6 -3 10 1 10 9 0 9 -4 16 -10 16 -5 0
-10 -4 -10 -9z"/>
<path d="M5750 5049 c0 -5 9 -9 20 -9 11 0 20 2 20 4 0 2 -9 6 -20 9 -11 3
-20 1 -20 -4z"/>
<path d="M5768 5013 c6 -2 18 -2 25 0 6 3 1 5 -13 5 -14 0 -19 -2 -12 -5z"/>
<path d="M5855 5000 c-8 -13 4 -32 16 -25 12 8 12 35 0 35 -6 0 -13 -4 -16
-10z"/>
<path d="M800 4970 c0 -5 5 -10 11 -10 5 0 7 5 4 10 -3 6 -8 10 -11 10 -2 0
-4 -4 -4 -10z"/>
<path d="M1303 4920 c0 -25 2 -35 4 -22 2 12 2 32 0 45 -2 12 -4 2 -4 -23z"/>
<path d="M6150 4920 c0 -22 16 -26 40 -10 13 9 13 11 0 20 -24 16 -40 12 -40
-10z"/>
<path d="M6090 4900 c-17 -11 -8 -23 14 -18 9 2 12 8 8 15 -5 8 -13 9 -22 3z"/>
<path d="M1542 4850 c-14 -23 -16 -40 -3 -40 9 0 25 49 19 56 -2 2 -9 -6 -16
-16z"/>
<path d="M6000 4629 c0 -5 5 -7 10 -4 6 3 10 8 10 11 0 2 -4 4 -10 4 -5 0 -10
-5 -10 -11z"/>
<path d="M5111 4564 c0 -11 3 -14 6 -6 3 7 2 16 -1 19 -3 4 -6 -2 -5 -13z"/>
<path d="M5723 4553 c9 -2 23 -2 30 0 6 3 -1 5 -18 5 -16 0 -22 -2 -12 -5z"/>
<path d="M5100 4535 c0 -5 5 -17 10 -25 5 -8 10 -10 10 -5 0 6 -5 17 -10 25
-5 8 -10 11 -10 5z"/>
<path d="M945 4324 c-5 -51 -3 -80 4 -87 8 -8 11 13 11 76 0 48 -2 87 -4 87
-2 0 -7 -34 -11 -76z"/>
<path d="M5186 4345 c-9 -26 -7 -32 5 -12 6 10 9 21 6 23 -2 3 -7 -2 -11 -11z"/>
<path d="M5275 4207 c10 -15 22 -24 31 -20 18 7 18 33 0 33 -8 0 -22 3 -31 7
-16 6 -16 5 0 -20z"/>
<path d="M627 4186 c-4 -10 -5 -21 -2 -24 9 -9 17 6 13 25 -3 17 -4 17 -11 -1z"/>
<path d="M1032 4180 c0 -14 2 -19 5 -12 2 6 2 18 0 25 -3 6 -5 1 -5 -13z"/>
<path d="M646 3747 c3 -10 9 -15 12 -12 3 3 0 11 -7 18 -10 9 -11 8 -5 -6z"/>
<path d="M6235 3060 c3 -25 9 -229 14 -455 12 -503 14 -530 21 -290 6 209 -14
726 -30 765 -8 20 -9 17 -5 -20z"/>
<path d="M6263 2055 c0 -33 2 -45 4 -27 2 18 2 45 0 60 -2 15 -4 0 -4 -33z"/>
<path d="M2870 1355 c30 -8 64 -14 75 -13 27 1 -73 26 -105 26 -14 0 0 -6 30
-13z"/>
<path d="M3745 1320 c-18 -8 -18 -9 5 -9 14 0 32 4 40 9 12 8 12 10 -5 9 -11
0 -29 -4 -40 -9z"/>
<path d="M3530 1250 c-9 -6 -10 -10 -3 -10 6 0 15 5 18 10 8 12 4 12 -15 0z"/>
<path d="M3698 1193 c6 -2 18 -2 25 0 6 3 1 5 -13 5 -14 0 -19 -2 -12 -5z"/>
<path d="M3658 1183 c7 -3 16 -2 19 1 4 3 -2 6 -13 5 -11 0 -14 -3 -6 -6z"/>
<path d="M3078 1168 c5 -5 16 -8 23 -6 8 3 3 7 -10 11 -17 4 -21 3 -13 -5z"/>
<path d="M3578 1163 c6 -2 18 -2 25 0 6 3 1 5 -13 5 -14 0 -19 -2 -12 -5z"/>
<path d="M3978 1134 c-38 -20 -36 -28 2 -9 17 9 30 18 30 20 0 7 -1 6 -32 -11z"/>
<path d="M2820 1065 c19 -19 36 -35 39 -35 3 0 -10 16 -29 35 -19 19 -36 35
-39 35 -3 0 10 -16 29 -35z"/>
<path d="M3905 1090 c-3 -6 1 -7 9 -4 18 7 21 14 7 14 -6 0 -13 -4 -16 -10z"/>
<path d="M3865 1070 c-3 -5 -2 -10 4 -10 5 0 13 5 16 10 3 6 2 10 -4 10 -5 0
-13 -4 -16 -10z"/>
<path d="M5526 993 c26 -35 54 -69 62 -75 31 -26 -6 26 -58 82 l-52 55 48 -62z"/>
<path d="M2884 1011 c20 -22 26 -25 26 -13 0 4 -10 13 -22 21 -23 14 -23 14
-4 -8z"/>
<path d="M2920 982 c0 -4 9 -13 20 -20 16 -10 20 -10 20 2 0 8 -7 17 -16 20
-20 8 -24 8 -24 -2z"/>
<path d="M2998 963 c7 -3 16 -2 19 1 4 3 -2 6 -13 5 -11 0 -14 -3 -6 -6z"/>
<path d="M4667 753 c-46 -186 -101 -433 -112 -505 -13 -81 -21 -50 -61 227
l-13 90 4 -90 c2 -49 15 -162 30 -250 15 -88 29 -175 31 -192 9 -63 19 -32 16
49 -2 50 2 108 11 148 9 36 21 89 27 118 7 28 15 52 18 52 4 0 8 21 9 48 2 53
10 97 23 127 5 11 11 34 14 50 12 77 27 139 37 151 6 7 8 17 6 21 -3 5 1 33 9
63 16 62 17 80 6 80 -5 0 -29 -84 -55 -187z"/>
<path d="M4441 874 c0 -11 3 -14 6 -6 3 7 2 16 -1 19 -3 4 -6 -2 -5 -13z"/>
<path d="M4935 869 c-5 -15 -9 -33 -45 -214 -35 -179 -86 -378 -140 -545 -33
-106 -37 -124 -16 -94 8 11 25 60 39 109 14 50 36 129 50 177 14 47 44 180 67
295 22 114 45 224 50 242 9 34 5 57 -5 30z"/>
<path d="M4452 820 c0 -14 2 -19 5 -12 2 6 2 18 0 25 -3 6 -5 1 -5 -13z"/>
<path d="M5525 469 c-4 -6 -5 -12 -2 -15 2 -3 7 2 10 11 7 17 1 20 -8 4z"/>
<path d="M2256 353 c-5 -57 -12 -103 -15 -103 -4 0 -23 32 -41 71 -19 39 -38
73 -42 75 -10 6 16 -57 53 -128 27 -53 29 -66 29 -163 0 -58 4 -105 9 -105 10
0 24 291 19 390 -3 63 -3 62 -12 -37z"/>
<path d="M3631 414 c0 -11 3 -14 6 -6 3 7 2 16 -1 19 -3 4 -6 -2 -5 -13z"/>
<path d="M6070 416 c0 -9 5 -16 10 -16 6 0 10 4 10 9 0 6 -4 13 -10 16 -5 3
-10 -1 -10 -9z"/>
<path d="M4637 343 c-4 -3 -7 -13 -7 -22 1 -13 3 -13 11 2 11 19 8 33 -4 20z"/>
<path d="M1748 280 c22 -22 43 -40 48 -40 4 0 -10 18 -31 40 -21 22 -43 40
-48 40 -5 0 9 -18 31 -40z"/>
<path d="M5377 278 c-20 -24 -86 -96 -149 -161 -67 -70 -106 -117 -96 -117 9
0 40 28 70 62 29 34 66 76 82 93 28 30 99 113 125 148 27 35 2 16 -32 -25z"/>
<path d="M3581 274 c0 -11 3 -14 6 -6 3 7 2 16 -1 19 -3 4 -6 -2 -5 -13z"/>
<path d="M1820 215 c7 -9 15 -13 17 -11 7 7 -7 26 -19 26 -6 0 -6 -6 2 -15z"/>
<path d="M3526 114 c-20 -59 -34 -110 -31 -112 3 -3 7 -3 9 -1 6 7 65 214 61
217 -1 2 -19 -45 -39 -104z"/>
<path d="M1850 202 c0 -12 34 -46 160 -160 43 -39 80 -54 80 -32 0 6 -4 10 -9
10 -5 0 -29 18 -53 41 -23 22 -59 53 -78 67 -19 14 -50 39 -67 56 -18 16 -33
24 -33 18z"/>
<path d="M2126 105 c4 -8 8 -15 10 -15 2 0 4 7 4 15 0 8 -4 15 -10 15 -5 0 -7
-7 -4 -15z"/>
<path d="M2091 93 c0 -5 4 -17 9 -28 8 -18 9 -17 9 8 1 15 -3 27 -9 27 -5 0
-10 -3 -9 -7z"/>
<path d="M2144 47 c3 -10 6 -25 6 -33 0 -8 5 -14 11 -14 12 0 2 40 -14 55 -7
7 -8 4 -3 -8z"/>
<path d="M2110 21 c0 -12 5 -21 10 -21 6 0 10 6 10 14 0 8 -4 18 -10 21 -5 3
-10 -3 -10 -14z"/>
</g>
</svg>
